<svg xmlns="http://www.w3.org/2000/svg">
  <symbol id="c7e-icon--fire" viewBox="0 0 24 24"><path d="M0 0h24v24H0z" fill="none"/><path d="M13.5.67s.74 2.65.74 4.8c0 2.06-1.35 3.73-3.41 3.73-2.07 0-3.63-1.67-3.63-3.73l.03-.36C5.21 7.51 4 10.62 4 14c0 4.42 3.58 8 8 8s8-3.58 8-8C20 8.61 17.41 3.8 13.5.67zM11.71 19c-1.78 0-3.22-1.4-3.22-3.14 0-1.62 1.05-2.76 2.81-3.12 1.77-.36 3.6-1.21 4.62-2.58.39 1.29.59 2.65.59 4.04 0 2.65-2.15 4.8-4.8 4.8z"/></symbol>
  <symbol id="c7e-icon--next" viewBox="0 0 24 24"><path d="M0 0h24v24H0V0z" fill="none"/><path d="m6 18 8.5-6L6 6v12zm2-8.14L11.03 12 8 14.14V9.86zM16 6h2v12h-2z"/></symbol>
  <symbol id="c7e-icon--not" viewBox="0 0 24 24"><path d="M0 0h24v24H0z" fill="none"/><path d="M12 2C6.48 2 2 6.48 2 12s4.48 10 10 10 10-4.48 10-10S17.52 2 12 2zm0 18c-4.42 0-8-3.58-8-8 0-1.85.63-3.55 1.69-4.9L16.9 18.31A7.902 7.902 0 0 1 12 20zm6.31-3.1L7.1 5.69A7.902 7.902 0 0 1 12 4c4.42 0 8 3.58 8 8 0 1.85-.63 3.55-1.69 4.9z"/></symbol>
  <symbol id="c7e-icon--potential-fire" viewBox="0 0 24 24"><path d="M10.5 12.5v4h3v-4h3.707l-.853-.854-4-4L12 7.293l-.354.353-4 4-.853.854H10.5Zm-8-.5c0-5.244 4.256-9.5 9.5-9.5s9.5 4.256 9.5 9.5-4.256 9.5-9.5 9.5-9.5-4.256-9.5-9.5Z" fill="#E59E37" stroke="#DC8B31"/><path d="M10.5 12.5v4h3v-4h3.707l-.853-.854-4-4L12 7.293l-.354.353-4 4-.853.854H10.5Z" fill="#fff" stroke="#DC8B31"/></symbol>
  <symbol id="c7e-icon--prev" viewBox="0 0 24 24"><path d="M0 0h24v24H0V0z" fill="none"/><path d="M6 6h2v12H6zm3.5 6 8.5 6V6l-8.5 6zm6.5 2.14L12.97 12 16 9.86v4.28z"/></symbol>
  <symbol id="c7e-icon--undo" viewBox="0 0 24 24"><path d="M14.1 19H7v-2h7.1q1.575 0 2.737-1Q18 15 18 13.5T16.837 11q-1.162-1-2.737-1H7.8l2.6 2.6L9 14 4 9l5-5 1.4 1.4L7.8 8h6.3q2.425 0 4.163 1.575Q20 11.15 20 13.5q0 2.35-1.737 3.925Q16.525 19 14.1 19Z"/></symbol>
  <symbol id="c7e-icon--zoom-in" viewBox="0 0 24 24"><path d="M11 19v-6H5v-2h6V5h2v6h6v2h-6v6Z"/></symbol>
  <symbol id="c7e-icon--zoom-out" viewbox="0 0 24 24"><path d="M5 13v-2h14v2Z"/></symbol>
  <symbol id="c7e-logomark--facebook-f" viewBox="0 0 24 24"><path d="M10.35 21.9C5.6 21.05 2 16.95 2 12 2 6.5 6.5 2 12 2s10 4.5 10 10c0 4.95-3.6 9.05-8.35 9.9l-.55-.45h-2.2l-.55.45Z" fill="#3A74E9"/><path d="m15.9 14.8.45-2.8H13.7v-1.95c0-.8.3-1.4 1.5-1.4h1.3V6.1c-.7-.1-1.5-.2-2.2-.2-2.3 0-3.9 1.4-3.9 3.9V12H7.9v2.8h2.5v7.05a9.206 9.206 0 0 0 3.3 0V14.8h2.2Z" fill="#fff"/></symbol>
  <symbol id="c7e-logomark--google-g" viewBox="0 0 24 24"><path d="M21.788 12.225c0-.658-.059-1.283-.159-1.892h-9.417v3.759h5.392c-.241 1.233-.95 2.275-2 2.983v2.5h3.217c1.883-1.742 2.966-4.308 2.966-7.35Z" fill="#4285F4"/><path d="M12.213 22c2.7 0 4.958-.9 6.608-2.425l-3.217-2.5c-.9.6-2.041.967-3.391.967-2.609 0-4.817-1.759-5.609-4.134H3.288v2.575C4.929 19.75 8.304 22 12.213 22Z" fill="#34A853"/><path d="M6.604 13.908A5.803 5.803 0 0 1 6.288 12c0-.667.116-1.308.316-1.908V7.517H3.288a9.884 9.884 0 0 0 0 8.966l3.316-2.575Z" fill="#FBBC05"/><path d="M12.213 5.958c1.475 0 2.791.509 3.833 1.5l2.85-2.85C17.17 2.992 14.912 2 12.212 2 8.305 2 4.93 4.25 3.289 7.517l3.316 2.575c.792-2.375 3-4.134 5.609-4.134Z" fill="#EA4335"/></symbol>
</svg>
