<svg xmlns="http://www.w3.org/2000/svg">
  <symbol id="c7e-icon--fire" viewBox="0 0 24 24"><path d="M0 0h24v24H0z" fill="none"/><path d="M13.5.67s.74 2.65.74 4.8c0 2.06-1.35 3.73-3.41 3.73-2.07 0-3.63-1.67-3.63-3.73l.03-.36C5.21 7.51 4 10.62 4 14c0 4.42 3.58 8 8 8s8-3.58 8-8C20 8.61 17.41 3.8 13.5.67zM11.71 19c-1.78 0-3.22-1.4-3.22-3.14 0-1.62 1.05-2.76 2.81-3.12 1.77-.36 3.6-1.21 4.62-2.58.39 1.29.59 2.65.59 4.04 0 2.65-2.15 4.8-4.8 4.8z"/></symbol>
  <symbol id="c7e-icon--next" viewBox="0 0 24 24"><path d="M0 0h24v24H0V0z" fill="none"/><path d="m6 18 8.5-6L6 6v12zm2-8.14L11.03 12 8 14.14V9.86zM16 6h2v12h-2z"/></symbol>
  <symbol id="c7e-icon--not" viewBox="0 0 24 24"><path d="M0 0h24v24H0z" fill="none"/><path d="M12 2C6.48 2 2 6.48 2 12s4.48 10 10 10 10-4.48 10-10S17.52 2 12 2zm0 18c-4.42 0-8-3.58-8-8 0-1.85.63-3.55 1.69-4.9L16.9 18.31A7.902 7.902 0 0 1 12 20zm6.31-3.1L7.1 5.69A7.902 7.902 0 0 1 12 4c4.42 0 8 3.58 8 8 0 1.85-.63 3.55-1.69 4.9z"/></symbol>
  <symbol id="c7e-icon--potential-fire" viewBox="0 0 24 24"><path d="M10.5 12.5v4h3v-4h3.707l-.853-.854-4-4L12 7.293l-.354.353-4 4-.853.854H10.5Zm-8-.5c0-5.244 4.256-9.5 9.5-9.5s9.5 4.256 9.5 9.5-4.256 9.5-9.5 9.5-9.5-4.256-9.5-9.5Z" fill="#E59E37" stroke="#DC8B31"/><path d="M10.5 12.5v4h3v-4h3.707l-.853-.854-4-4L12 7.293l-.354.353-4 4-.853.854H10.5Z" fill="#fff" stroke="#DC8B31"/></symbol>
  <symbol id="c7e-icon--prev" viewBox="0 0 24 24"><path d="M0 0h24v24H0V0z" fill="none"/><path d="M6 6h2v12H6zm3.5 6 8.5 6V6l-8.5 6zm6.5 2.14L12.97 12 16 9.86v4.28z"/></symbol>
  <symbol id="c7e-icon--undo" viewBox="0 0 24 24"><path d="M14.1 19H7v-2h7.1q1.575 0 2.737-1Q18 15 18 13.5T16.837 11q-1.162-1-2.737-1H7.8l2.6 2.6L9 14 4 9l5-5 1.4 1.4L7.8 8h6.3q2.425 0 4.163 1.575Q20 11.15 20 13.5q0 2.35-1.737 3.925Q16.525 19 14.1 19Z"/></symbol>
</svg>
