<svg xmlns="http://www.w3.org/2000/svg">
  <symbol id="c7e-icon--fire" viewBox="0 0 24 24"><path d="M0 0h24v24H0z" fill="none"/><path d="M13.5.67s.74 2.65.74 4.8c0 2.06-1.35 3.73-3.41 3.73-2.07 0-3.63-1.67-3.63-3.73l.03-.36C5.21 7.51 4 10.62 4 14c0 4.42 3.58 8 8 8s8-3.58 8-8C20 8.61 17.41 3.8 13.5.67zM11.71 19c-1.78 0-3.22-1.4-3.22-3.14 0-1.62 1.05-2.76 2.81-3.12 1.77-.36 3.6-1.21 4.62-2.58.39 1.29.59 2.65.59 4.04 0 2.65-2.15 4.8-4.8 4.8z"/></symbol>
  <symbol id="c7e-icon--fold-less" viewbox="0 0 24 24"><path d="M0 0h24v24H0z" fill="none"/><path d="M7.41 18.59 8.83 20 12 16.83 15.17 20l1.41-1.41L12 14l-4.59 4.59zm9.18-13.18L15.17 4 12 7.17 8.83 4 7.41 5.41 12 10l4.59-4.59z"/></symbol>
  <symbol id="c7e-icon--fold-more" viewbox="0 0 24 24"><path d="M0 0h24v24H0z" fill="none"/><path d="M12 5.83 15.17 9l1.41-1.41L12 3 7.41 7.59 8.83 9 12 5.83zm0 12.34L8.83 15l-1.41 1.41L12 21l4.59-4.59L15.17 15 12 18.17z"/></symbol>
  <symbol id="c7e-icon--full-image" viewbox="0 0 24 24"><path d="m14.14 11.86-3 3.87L9 13.14 6 17h12l-3.86-5.14Z"/><path d="M19 19H5V5h7V3H5a2 2 0 0 0-2 2v14a2 2 0 0 0 2 2h14c1.1 0 2-.9 2-2v-7h-2v7ZM14 3v2h3.59l-4.07 3.59L14.93 10 19 6.41V10h2V3h-7Z"/></symbol>
  <symbol id="c7e-icon--link" viewbox="0 0 24 24"><path d="M0 0h24v24H0V0z" fill="none"/><path d="M17 7h-4v2h4c1.65 0 3 1.35 3 3s-1.35 3-3 3h-4v2h4c2.76 0 5-2.24 5-5s-2.24-5-5-5zm-6 8H7c-1.65 0-3-1.35-3-3s1.35-3 3-3h4V7H7c-2.76 0-5 2.24-5 5s2.24 5 5 5h4v-2zm-3-4h8v2H8z"/></symbol>
  <symbol id="c7e-icon--next" viewBox="0 0 24 24"><path d="M0 0h24v24H0V0z" fill="none"/><path d="m6 18 8.5-6L6 6v12zm2-8.14L11.03 12 8 14.14V9.86zM16 6h2v12h-2z"/></symbol>
  <symbol id="c7e-icon--not" viewBox="0 0 24 24"><path d="M0 0h24v24H0z" fill="none"/><path d="M12 2C6.48 2 2 6.48 2 12s4.48 10 10 10 10-4.48 10-10S17.52 2 12 2zm0 18c-4.42 0-8-3.58-8-8 0-1.85.63-3.55 1.69-4.9L16.9 18.31A7.902 7.902 0 0 1 12 20zm6.31-3.1L7.1 5.69A7.902 7.902 0 0 1 12 4c4.42 0 8 3.58 8 8 0 1.85-.63 3.55-1.69 4.9z"/></symbol>
  <symbol id="c7e-icon--notifications-off" viewbox="0 0 24 24"><path d="M0 0h24v24H0V0z" fill="none"/><path d="M12 22c1.1 0 2-.9 2-2h-4c0 1.1.9 2 2 2zm0-15.5c2.49 0 4 2.02 4 4.5v.1l2 2V11c0-3.07-1.63-5.64-4.5-6.32V4c0-.83-.67-1.5-1.5-1.5s-1.5.67-1.5 1.5v.68c-.24.06-.47.15-.69.23l1.64 1.64c.18-.02.36-.05.55-.05zM5.41 3.35 4 4.76l2.81 2.81C6.29 8.57 6 9.74 6 11v5l-2 2v1h14.24l1.74 1.74 1.41-1.41L5.41 3.35zM16 17H8v-6c0-.68.12-1.32.34-1.9L16 16.76V17z"/></symbol>
  <symbol id="c7e-icon--notifications-on" viewbox="0 0 24 24"><path d="M0 0h24v24H0V0z" fill="none"/><path d="M12 22c1.1 0 2-.9 2-2h-4c0 1.1.9 2 2 2zm6-6v-5c0-3.07-1.63-5.64-4.5-6.32V4c0-.83-.67-1.5-1.5-1.5s-1.5.67-1.5 1.5v.68C7.64 5.36 6 7.92 6 11v5l-2 2v1h16v-1l-2-2zm-2 1H8v-6c0-2.48 1.51-4.5 4-4.5s4 2.02 4 4.5v6z"/></symbol>
  <symbol id="c7e-icon--potential-fire" viewBox="0 0 24 24"><path d="M10.5 12.5v4h3v-4h3.707l-.853-.854-4-4L12 7.293l-.354.353-4 4-.853.854H10.5Zm-8-.5c0-5.244 4.256-9.5 9.5-9.5s9.5 4.256 9.5 9.5-4.256 9.5-9.5 9.5-9.5-4.256-9.5-9.5Z" fill="#E59E37" stroke="#DC8B31"/><path d="M10.5 12.5v4h3v-4h3.707l-.853-.854-4-4L12 7.293l-.354.353-4 4-.853.854H10.5Z" fill="#fff" stroke="#DC8B31"/></symbol>
  <symbol id="c7e-icon--preferences" viewbox="0 0 24 24"><path d="M0 0h24v24H0V0z" fill="none"/><path d="M19.43 12.98c.04-.32.07-.64.07-.98 0-.34-.03-.66-.07-.98l2.11-1.65c.19-.15.24-.42.12-.64l-2-3.46a.5.5 0 0 0-.61-.22l-2.49 1c-.52-.4-1.08-.73-1.69-.98l-.38-2.65A.488.488 0 0 0 14 2h-4c-.25 0-.46.18-.49.42l-.38 2.65c-.61.25-1.17.59-1.69.98l-2.49-1a.566.566 0 0 0-.18-.03c-.17 0-.34.09-.43.25l-2 3.46c-.13.22-.07.49.12.64l2.11 1.65c-.04.32-.07.65-.07.98 0 .33.03.66.07.98l-2.11 1.65c-.19.15-.24.42-.12.64l2 3.46a.5.5 0 0 0 .61.22l2.49-1c.52.4 1.08.73 1.69.98l.38 2.65c.03.24.24.42.49.42h4c.25 0 .46-.18.49-.42l.38-2.65c.61-.25 1.17-.59 1.69-.98l2.49 1c.06.02.12.03.18.03.17 0 .34-.09.43-.25l2-3.46c.12-.22.07-.49-.12-.64l-2.11-1.65zm-1.98-1.71c.04.31.05.52.05.73 0 .21-.02.43-.05.73l-.14 1.13.89.7 1.08.84-.7 1.21-1.27-.51-1.04-.42-.9.68c-.43.32-.84.56-1.25.73l-1.06.43-.16 1.13-.2 1.35h-1.4l-.19-1.35-.16-1.13-1.06-.43c-.43-.18-.83-.41-1.23-.71l-.91-.7-1.06.43-1.27.51-.7-1.21 1.08-.84.89-.7-.14-1.13c-.03-.31-.05-.54-.05-.74s.02-.43.05-.73l.14-1.13-.89-.7-1.08-.84.7-1.21 1.27.51 1.04.42.9-.68c.43-.32.84-.56 1.25-.73l1.06-.43.16-1.13.2-1.35h1.39l.19 1.35.16 1.13 1.06.43c.43.18.83.41 1.23.71l.91.7 1.06-.43 1.27-.51.7 1.21-1.07.85-.89.7.14 1.13zM12 8c-2.21 0-4 1.79-4 4s1.79 4 4 4 4-1.79 4-4-1.79-4-4-4zm0 6c-1.1 0-2-.9-2-2s.9-2 2-2 2 .9 2 2-.9 2-2 2z"/></symbol>
  <symbol id="c7e-icon--prev" viewBox="0 0 24 24"><path d="M0 0h24v24H0V0z" fill="none"/><path d="M6 6h2v12H6zm3.5 6 8.5 6V6l-8.5 6zm6.5 2.14L12.97 12 16 9.86v4.28z"/></symbol>
  <symbol id="c7e-icon--select-all" viewbox="0 0 24 24"><path d="M0 0h24v24H0V0z" fill="none"/><path d="M3 5h2V3c-1.1 0-2 .9-2 2zm0 8h2v-2H3v2zm4 8h2v-2H7v2zM3 9h2V7H3v2zm10-6h-2v2h2V3zm6 0v2h2c0-1.1-.9-2-2-2zM5 21v-2H3c0 1.1.9 2 2 2zm-2-4h2v-2H3v2zM9 3H7v2h2V3zm2 18h2v-2h-2v2zm8-8h2v-2h-2v2zm0 8c1.1 0 2-.9 2-2h-2v2zm0-12h2V7h-2v2zm0 8h2v-2h-2v2zm-4 4h2v-2h-2v2zm0-16h2V3h-2v2zM7 17h10V7H7v10zm2-8h6v6H9V9z"/></symbol>
  <symbol id="c7e-icon--sign-in" viewbox="0 0 24 24"><path d="M12 21v-2h7V5h-7V3h7q.825 0 1.413.587Q21 4.175 21 5v14q0 .825-.587 1.413Q19.825 21 19 21Zm-2-4-1.375-1.45 2.55-2.55H3v-2h8.175l-2.55-2.55L10 7l5 5Z"/></symbol>
  <symbol id="c7e-icon--sign-out" viewbox="0 0 24 24"><path d="M5 21q-.825 0-1.413-.587Q3 19.825 3 19V5q0-.825.587-1.413Q4.175 3 5 3h7v2H5v14h7v2Zm11-4-1.375-1.45 2.55-2.55H9v-2h8.175l-2.55-2.55L16 7l5 5Z"/></symbol>
  <symbol id="c7e-icon--undo" viewBox="0 0 24 24"><path d="M14.1 19H7v-2h7.1q1.575 0 2.737-1Q18 15 18 13.5T16.837 11q-1.162-1-2.737-1H7.8l2.6 2.6L9 14 4 9l5-5 1.4 1.4L7.8 8h6.3q2.425 0 4.163 1.575Q20 11.15 20 13.5q0 2.35-1.737 3.925Q16.525 19 14.1 19Z"/></symbol>
  <symbol id="c7e-icon--zoom-in" viewBox="0 0 24 24"><path d="M11 19v-6H5v-2h6V5h2v6h6v2h-6v6Z"/></symbol>
  <symbol id="c7e-icon--zoom-out" viewbox="0 0 24 24"><path d="M5 13v-2h14v2Z"/></symbol>
  <symbol id="c7e-logomark--facebook-f" viewBox="0 0 24 24"><path d="M10.35 21.9C5.6 21.05 2 16.95 2 12 2 6.5 6.5 2 12 2s10 4.5 10 10c0 4.95-3.6 9.05-8.35 9.9l-.55-.45h-2.2l-.55.45Z" fill="#3A74E9"/><path d="m15.9 14.8.45-2.8H13.7v-1.95c0-.8.3-1.4 1.5-1.4h1.3V6.1c-.7-.1-1.5-.2-2.2-.2-2.3 0-3.9 1.4-3.9 3.9V12H7.9v2.8h2.5v7.05a9.206 9.206 0 0 0 3.3 0V14.8h2.2Z" fill="#fff"/></symbol>
  <symbol id="c7e-logomark--google-g" viewBox="0 0 24 24"><path d="M21.788 12.225c0-.658-.059-1.283-.159-1.892h-9.417v3.759h5.392c-.241 1.233-.95 2.275-2 2.983v2.5h3.217c1.883-1.742 2.966-4.308 2.966-7.35Z" fill="#4285F4"/><path d="M12.213 22c2.7 0 4.958-.9 6.608-2.425l-3.217-2.5c-.9.6-2.041.967-3.391.967-2.609 0-4.817-1.759-5.609-4.134H3.288v2.575C4.929 19.75 8.304 22 12.213 22Z" fill="#34A853"/><path d="M6.604 13.908A5.803 5.803 0 0 1 6.288 12c0-.667.116-1.308.316-1.908V7.517H3.288a9.884 9.884 0 0 0 0 8.966l3.316-2.575Z" fill="#FBBC05"/><path d="M12.213 5.958c1.475 0 2.791.509 3.833 1.5l2.85-2.85C17.17 2.992 14.912 2 12.212 2 8.305 2 4.93 4.25 3.289 7.517l3.316 2.575c.792-2.375 3-4.134 5.609-4.134Z" fill="#EA4335"/></symbol>
</svg>
